HIERARCHY
ROOT Hips
{
 OFFSET 0.000000 0.000000 0.000000
 CHANNELS 6 Xposition Yposition Zposition Yrotation Xrotation Zrotation
 JOINT Chest
 {
  OFFSET 0.000000 9.585900 0.002600
  CHANNELS 3 Yrotation Xrotation Zrotation
  JOINT Chest2
  {
   OFFSET 0.000000 9.601200 -0.005300
   CHANNELS 3 Yrotation Xrotation Zrotation
   JOINT Chest3
   {
    OFFSET 0.000000 9.561800 0.000000
    CHANNELS 3 Yrotation Xrotation Zrotation
    JOINT Chest4
    {
     OFFSET 0.000000 9.552100 0.000000
     CHANNELS 3 Yrotation Xrotation Zrotation
     JOINT Neck
     {
      OFFSET 0.000000 14.453000 0.000000
      CHANNELS 3 Yrotation Xrotation Zrotation
      JOINT Head
      {
       OFFSET 0.000000 8.936500 -0.011300
       CHANNELS 3 Yrotation Xrotation Zrotation
       End Site
       {
        OFFSET 0.000000 17.073600 -0.006000
       }
      }
     }
     JOINT RightCollar
     {
      OFFSET -2.921100 9.558500 0.000000
      CHANNELS 3 Yrotation Xrotation Zrotation
      JOINT RightShoulder
      {
       OFFSET -13.519700 0.000000 0.000000
       CHANNELS 3 Yrotation Xrotation Zrotation
       JOINT RightElbow
       {
        OFFSET 0.000000 -29.696600 0.000000
        CHANNELS 3 Yrotation Xrotation Zrotation
        JOINT RightWrist
        {
         OFFSET 0.000000 -24.004700 0.000000
         CHANNELS 3 Yrotation Xrotation Zrotation
         End Site
         {
          OFFSET 0.000000 -17.728500 0.000000
         }
        }
       }
      }
     }
     JOINT LeftCollar
     {
      OFFSET 2.921100 9.558500 0.000000
      CHANNELS 3 Yrotation Xrotation Zrotation
      JOINT LeftShoulder
      {
       OFFSET 13.519700 0.000000 0.000000
       CHANNELS 3 Yrotation Xrotation Zrotation
       JOINT LeftElbow
       {
        OFFSET 0.000000 -29.696600 0.000000
        CHANNELS 3 Yrotation Xrotation Zrotation
        JOINT LeftWrist
        {
         OFFSET 0.000000 -24.004700 0.000000
         CHANNELS 3 Yrotation Xrotation Zrotation
         End Site
         {
          OFFSET 0.000000 -17.728500 0.000000
         }
        }
       }
      }
     }
    }
   }
  }
 }
 JOINT RightHip
 {
  OFFSET -7.771700 -0.012900 -0.001300
  CHANNELS 3 Yrotation Xrotation Zrotation
  JOINT RightKnee
  {
   OFFSET 0.000000 -40.869800 0.001200
   CHANNELS 3 Yrotation Xrotation Zrotation
   JOINT RightAnkle
   {
    OFFSET 0.000000 -39.717900 0.002100
    CHANNELS 3 Yrotation Xrotation Zrotation
    JOINT RightToe
    {
     OFFSET 0.000000 -4.965400 11.033500
     CHANNELS 3 Yrotation Xrotation Zrotation
     End Site
     {
      OFFSET 0.000000 -1.423100 5.872300
     }
    }
   }
  }
 }
 JOINT LeftHip
 {
  OFFSET 7.771700 -0.012900 -0.001300
  CHANNELS 3 Yrotation Xrotation Zrotation
  JOINT LeftKnee
  {
   OFFSET 0.000000 -40.869800 0.001200
   CHANNELS 3 Yrotation Xrotation Zrotation
   JOINT LeftAnkle
   {
    OFFSET 0.000000 -39.717900 0.002100
    CHANNELS 3 Yrotation Xrotation Zrotation
    JOINT LeftToe
    {
     OFFSET 0.000000 -4.965400 11.033500
     CHANNELS 3 Yrotation Xrotation Zrotation
     End Site
     {
      OFFSET 0.000000 -1.423100 5.872300
     }
    }
   }
  }
 }
}
MOTION
Frames: 9
Frame Time: 0.008333
0.000000 85.388000 0.000000 0.000000 -5.767877 0.000000 0.000000 11.653817 0.000000 0.000000 -5.885947 0.000000 0.000000 -0.000000 0.000000 0.000000 -0.000000 0.000000 0.000000 12.528835 0.000000 0.000000 0.711642 0.000000 0.000000 -0.000000 0.000000 0.000000 0.000000 -90.000000 0.000000 -2.309062 0.000000 0.000000 2.309062 0.000000 0.000000 -0.000000 0.000000 0.000000 -0.000000 90.000000 0.000000 -2.309062 0.000000 0.000000 2.309062 0.000000 0.000000 8.520406 0.000000 0.000000 1.905762 0.000000 -0.000000 -4.658285 0.000000 0.000000 -0.000000 0.000000 0.000000 8.520406 0.000000 0.000000 1.905762 0.000000 -0.000000 -4.658285 0.000000 0.000000 -0.000000 0.000000
-37.096536 51.902729 23.828507 179.705655 -30.184342 0.738200 0.762054 23.338946 -0.760832 0.100599 3.446037 -0.093182 0.191921 5.550158 -0.086126 0.627691 19.628582 -0.260936 -0.402509 17.194835 -6.263475 1.011632 -7.453903 -6.643113 11.223125 7.203837 10.608878 57.607211 -5.195254 -58.558468 146.409191 -32.082226 -175.718552 -5.144680 -16.985956 3.867157 -9.072432 11.765081 -16.401751 -26.866999 -1.682296 40.137434 172.742731 -64.862118 -130.168871 17.371336 -2.166853 -9.805088 -8.744551 -52.691915 -1.097902 -63.922275 82.623329 -72.269344 -3.924025 -9.657092 9.183372 0.125971 -0.556827 0.051845 1.331961 -50.434610 -2.782097 36.252513 83.350942 40.816864 -0.932992 -9.427597 -2.684572 0.133878 0.384826 0.078551
-37.095117 51.901863 23.822481 179.741108 -30.136928 0.738831 0.732068 23.294964 -0.764810 0.114887 3.429543 -0.054095 0.168927 5.546727 -0.120738 0.619960 19.587915 -0.234058 -0.149971 17.204010 -6.237387 1.277313 -7.441363 -6.674675 11.364113 7.106825 10.548786 58.439131 -5.061402 -59.106011 146.047417 -32.096204 -175.471339 -5.074185 -16.829954 3.707151 -9.094561 11.825192 -16.429930 -26.905811 -1.630286 40.420361 174.691159 -64.623355 -132.324114 17.248337 -1.802203 -11.364573 -8.736646 -52.747270 -1.121612 -64.107157 82.637673 -72.446806 -3.950414 -9.659482 9.183796 0.142262 -0.558978 0.061055 1.367098 -50.483492 -2.820720 36.188448 83.363491 40.754916 -0.943040 -9.435745 -2.666170 0.129864 0.387104 0.077329
-37.092954 51.901033 23.814593 179.754124 -30.083073 0.752326 0.721172 23.247438 -0.770711 0.124116 3.423536 -0.030006 0.157968 5.522426 -0.124727 0.602072 19.559075 -0.225732 0.082755 17.188255 -6.214585 1.522643 -7.455832 -6.705337 11.487462 7.012392 10.484494 59.230648 -4.970534 -59.603516 145.719200 -32.132539 -175.237191 -4.971930 -16.693283 3.513012 -9.167362 11.943092 -16.399477 -26.864357 -1.702127 40.691226 176.655276 -64.230637 -134.504104 17.179520 -1.480717 -13.025546 -8.717877 -52.805262 -1.145426 -64.215385 82.647167 -72.549597 -3.961710 -9.668160 9.184971 0.149235 -0.552835 0.064344 1.425008 -50.538250 -2.856990 36.230962 83.377218 40.783285 -0.938188 -9.453790 -2.637006 0.100656 0.390904 0.076096
-37.090221 51.899415 23.806245 179.775912 -30.015259 0.762726 0.731598 23.210963 -0.724042 0.093302 3.393707 -0.070982 0.170042 5.486280 -0.082673 0.567797 19.539693 -0.245185 0.287238 17.151319 -6.197431 1.739108 -7.493220 -6.735687 11.589383 6.926308 10.418709 59.994954 -4.915655 -60.056537 145.442762 -32.185402 -175.040291 -4.842452 -16.600520 3.289947 -9.231047 12.048918 -16.393060 -26.775313 -1.778639 40.994986 178.621475 -63.667860 -136.697494 17.173779 -1.202786 -14.745684 -8.716643 -52.876049 -1.164214 -64.298024 82.661438 -72.631319 -3.966649 -9.680990 9.186309 0.147028 -0.546541 0.065088 1.466590 -50.607386 -2.897809 36.204827 83.394127 40.756861 -0.933399 -9.466047 -2.624654 0.094184 0.389860 0.072018
-37.087463 51.898333 23.795098 179.810087 -29.951685 0.769530 0.703040 23.154431 -0.733619 0.091323 3.388036 -0.069621 0.176487 5.457517 -0.068898 0.551366 19.504393 -0.239698 0.455227 17.100441 -6.185862 1.917773 -7.545881 -6.763576 11.670022 6.852202 10.355508 60.734057 -4.890753 -60.467038 145.231959 -32.246095 -174.895013 -4.686612 -16.556084 3.056556 -9.281080 12.147462 -16.392149 -26.631485 -1.868378 41.314181 -179.484872 -62.898256 -138.836221 17.220837 -0.989909 -16.455473 -8.701296 -52.941319 -1.193259 -64.459165 82.674679 -72.784707 -3.993648 -9.698591 9.186011 0.156382 -0.543529 0.075674 1.479223 -50.671301 -2.935616 36.236981 83.404550 40.783598 -0.921807 -9.477775 -2.616661 0.077611 0.390713 0.068888
-37.084191 51.896804 23.782697 179.859023 -29.883298 0.766135 0.663142 23.091285 -0.740436 0.099083 3.378069 -0.055327 0.177965 5.421206 -0.065017 0.527538 19.493212 -0.247685 0.580627 17.021694 -6.177423 2.049747 -7.607926 -6.786532 11.733718 6.767252 10.298416 61.439308 -4.896030 -60.834457 145.105050 -32.312356 -174.805349 -4.511711 -16.542442 2.824137 -9.320845 12.233961 -16.378444 -26.413447 -1.996149 41.639458 -177.731502 -61.881683 -140.864264 17.325583 -0.864249 -18.061517 -8.690473 -53.013300 -1.219913 -64.720590 82.680412 -73.032963 -4.028020 -9.710520 9.188754 0.174411 -0.553367 0.087843 1.504967 -50.739377 -2.981429 36.132552 83.422388 40.694185 -0.934536 -9.489626 -2.613403 0.100698 0.388681 0.062694
-37.083190 51.894764 23.769011 179.901511 -29.811147 0.777176 0.639127 23.028744 -0.744014 0.116790 3.347993 -0.038656 0.148820 5.403565 -0.085500 0.508432 19.513492 -0.256336 0.658170 16.896080 -6.172554 2.130124 -7.677684 -6.803861 11.787502 6.645872 10.246355 62.097692 -4.930282 -61.158505 145.069206 -32.385693 -174.769625 -4.335603 -16.520897 2.574922 -9.344185 12.275639 -16.352069 -26.105254 -2.166560 41.958212 -176.138112 -60.597344 -142.778615 17.514377 -0.839799 -19.472785 -8.682914 -53.088387 -1.255105 -64.904800 82.691050 -73.220396 -4.041552 -9.727946 9.198741 0.181192 -0.553382 0.090461 1.547064 -50.809641 -3.040268 36.077517 83.437020 40.641434 -0.943847 -9.504345 -2.604177 0.100360 0.391926 0.068385
-37.083326 51.897801 23.743996 179.940597 -29.804946 0.792090 0.617327 23.027389 -0.753764 0.104502 3.333599 -0.046128 0.142288 5.393319 -0.088355 0.504239 19.389528 -0.252837 0.675098 16.884587 -6.183928 2.155885 -7.754515 -6.814857 11.833385 6.647088 10.219938 62.695464 -4.986130 -61.437044 145.107706 -32.463231 -174.779180 -4.171535 -16.463583 2.276577 -9.366218 12.422633 -16.362393 -25.704151 -2.391315 42.260783 -174.723803 -59.060501 -144.564147 17.811752 -0.938405 -20.642855 -8.665709 -53.098287 -1.305974 -65.191564 82.719249 -73.526308 -4.036733 -9.742077 9.207344 0.164422 -0.568526 0.095080 1.587442 -50.812504 -3.091462 36.138777 83.462622 40.691229 -0.953094 -9.524313 -2.584054 0.091114 0.382120 0.071896
